# xmcd CD database file
#
# Track frame offsets:
#	170
#	25991
#	49686
#	67499
#	100568
#	114321
#	137908
#	155119
#	172976
#	198755
#	211697
#	231638
#
# Disc length: 3256 seconds
#
# Revision: 0
# Processed by: cddbd v1.5.1PL0 Copyright (c) Steve Scherf et al.
# Submitted via: CDex 1.51
#
DISCID=a80cb60c
DTITLE=Barbara Balzan Quartet - tender awakening
DYEAR=2003
DGENRE=Jazz
TTITLE0=My One And Only Love
TTITLE1=You're My Everything
TTITLE2=Le Violoncelle Reveur
TTITLE3=Il Lungo Addio
TTITLE4=Seven And Nine
TTITLE5=Tango Carina
TTITLE6=Morning Dew
TTITLE7=A Good Friends Story
TTITLE8=The Way Of Life
TTITLE9=La Danseuse
TTITLE10=Tender Souled
TTITLE11=Attitude Of Mine
EXTD=YEAR: 2003
EXTT0=
EXTT1=
EXTT2=
EXTT3=
EXTT4=
EXTT5=
EXTT6=
EXTT7=
EXTT8=
EXTT9=
EXTT10=
EXTT11=
PLAYORDER=
